# xmcd CD database file
#
# Track frame offsets:
#	150
#	22791
#	38150
#	64991
#	88260
#	128518
#	132587
#	153965
#	175405
#	193188
#	214367
#	242922
#	248003
#
# Disc length: 3623 seconds
#
# Revision: 1
# Processed by: cddbd v1.5.2PL0 Copyright (c) Steve Scherf et al.
# Submitted via: CDex 1.51
#
DISCID=b80e250d
DTITLE=Unkle - Psyence Fiction
DYEAR=1999
DGENRE=Indie
TTITLE0=Guns Blazing (drums of death part 1)
TTITLE1=Unkle (main title theme)
TTITLE2=Bloodstain
TTITLE3=Unreal
TTITLE4=Lonely Soul (ft. Richard Ashcroft)
TTITLE5=Getting Ahead In The Lucrative Field Of Artist Management
TTITLE6=Nursery Rhyme/Breather
TTITLE7=Celestial Annihilation
TTITLE8=The Knock (drums of death part 2)
TTITLE9=Chaos
TTITLE10=Rabbit In Your Headlights (ft. Thom Yorke)
TTITLE11=Outro
TTITLE12=Be There (ft. Ian Brown)
EXTD=YEAR: 1999
EXTT0=
EXTT1=
EXTT2=
EXTT3=
EXTT4=
EXTT5=
EXTT6=
EXTT7=
EXTT8=
EXTT9=
EXTT10=
EXTT11=
EXTT12=
PLAYORDER=
